{
  "accessors": [
    {
      "bufferView": 2,
      "componentType": 5126,
      "count": 1893,
      "max": [
        126.60820007324219,
        50.42198944091797,
        55.210472106933594
      ],
      "min": [
        -126.60820007324219,
        -50.42198181152344,
        -55.21049880981445
      ],
      "type": "VEC3"
    },
    {
      "bufferView": 2,
      "byteOffset": 22716,
      "componentType": 5126,
      "count": 1893,
      "max": [
        0.9999996423721313,
        1.0,
        0.9999849200248718
      ],
      "min": [
        -0.9999996423721313,
        -1.0,
        -1.0
      ],
      "type": "VEC3"
    },
    {
      "bufferView": 3,
      "componentType": 5126,
      "count": 1893,
      "max": [
        1.0,
        0.9999976754188538,
        0.9999998211860657,
        1.0
      ],
      "min": [
        -0.9999977946281433,
        -0.9999995231628418,
        -0.9999569654464722,
        -1.0
      ],
      "type": "VEC4"
    },
    {
      "bufferView": 1,
      "componentType": 5126,
      "count": 1893,
      "max": [
        0.9936130046844482,
        0.9971789717674255
      ],
      "min": [
        0.007153000216931105,
        0.0074880123138427734
      ],
      "type": "VEC2"
    },
    {
      "bufferView": 1,
      "byteOffset": 15144,
      "componentType": 5126,
      "count": 1893,
      "max": [
        0.9936130046844482,
        0.9971789717674255
      ],
      "min": [
        -0.9917929768562317,
        0.0074880123138427734
      ],
      "type": "VEC2"
    },
    {
      "bufferView": 1,
      "byteOffset": 30288,
      "componentType": 5126,
      "count": 1893,
      "max": [
        0.9936130046844482,
        0.9971789717674255
      ],
      "min": [
        0.007153000216931105,
        0.0074880123138427734
      ],
      "type": "VEC2"
    },
    {
      "bufferView": 1,
      "byteOffset": 45432,
      "componentType": 5126,
      "count": 1893,
      "max": [
        0.9936130046844482,
        0.9971789717674255
      ],
      "min": [
        0.007153000216931105,
        0.0074880123138427734
      ],
      "type": "VEC2"
    },
    {
      "bufferView": 1,
      "byteOffset": 60576,
      "componentType": 5126,
      "count": 1893,
      "max": [
        0.9936130046844482,
        0.9971789717674255
      ],
      "min": [
        0.007153000216931105,
        0.0074880123138427734
      ],
      "type": "VEC2"
    },
    {
      "bufferView": 0,
      "componentType": 5125,
      "count": 7542,
      "type": "SCALAR"
    }
  ],
  "asset": {
    "extras": {
      "author": "MaX3Dd (https://sketchfab.com/MaX3Dd)",
      "license": "SKETCHFAB Standard (https://sketchfab.com/licenses)",
      "source": "https://sketchfab.com/3d-models/sofa-8a89fc765c5f406f87b7ee93ba253f67",
      "title": "Sofa"
    },
    "generator": "Sketchfab-16.95.0",
    "version": "2.0"
  },
  "bufferViews": [
    {
      "buffer": 0,
      "byteLength": 30168,
      "name": "floatBufferViews",
      "target": 34963
    },
    {
      "buffer": 0,
      "byteLength": 75720,
      "byteOffset": 30168,
      "byteStride": 8,
      "name": "floatBufferViews",
      "target": 34962
    },
    {
      "buffer": 0,
      "byteLength": 45432,
      "byteOffset": 105888,
      "byteStride": 12,
      "name": "floatBufferViews",
      "target": 34962
    },
    {
      "buffer": 0,
      "byteLength": 30288,
      "byteOffset": 151320,
      "byteStride": 16,
      "name": "floatBufferViews",
      "target": 34962
    }
  ],
  "buffers": [
    {
      "byteLength": 181608,
      "uri": "scene.bin"
    }
  ],
  "images": [
    {
      "uri": "textures/sofa_baseColor.png"
    },
    {
      "uri": "textures/sofa_metallicRoughness.png"
    },
    {
      "uri": "textures/sofa_normal.png"
    }
  ],
  "materials": [
    {
      "doubleSided": true,
      "name": "sofa",
      "normalTexture": {
        "index": 2
      },
      "occlusionTexture": {
        "index": 1
      },
      "pbrMetallicRoughness": {
        "baseColorTexture": {
          "index": 0
        },
        "metallicRoughnessTexture": {
          "index": 1
        }
      }
    }
  ],
  "meshes": [
    {
      "name": "sofa_sofa_0",
      "primitives": [
        {
          "attributes": {
            "NORMAL": 1,
            "POSITION": 0,
            "TANGENT": 2,
            "TEXCOORD_0": 3,
            "TEXCOORD_1": 4,
            "TEXCOORD_2": 5,
            "TEXCOORD_3": 6,
            "TEXCOORD_4": 7
          },
          "indices": 8,
          "material": 0,
          "mode": 4
        }
      ]
    }
  ],
  "nodes": [
    {
      "children": [
        1
      ],
      "matrix": [
        1.0,
        0.0,
        0.0,
        0.0,
        0.0,
        2.220446049250313e-16,
        -1.0,
        0.0,
        0.0,
        1.0,
        2.220446049250313e-16,
        0.0,
        0.0,
        0.0,
        0.0,
        1.0
      ],
      "name": "Sketchfab_model"
    },
    {
      "children": [
        2
      ],
      "matrix": [
        0.009999999776482582,
        0.0,
        0.0,
        0.0,
        0.0,
        0.0,
        0.009999999776482582,
        0.0,
        0.0,
        -0.009999999776482582,
        0.0,
        0.0,
        0.0,
        0.0,
        0.0,
        1.0
      ],
      "name": "sofa.fbx"
    },
    {
      "children": [
        3
      ],
      "name": "RootNode"
    },
    {
      "children": [
        4
      ],
      "matrix": [
        1.0,
        0.0,
        0.0,
        0.0,
        0.0,
        2.220446049250313e-16,
        -1.0,
        0.0,
        0.0,
        1.0,
        2.220446049250313e-16,
        0.0,
        0.0,
        0.0,
        0.0,
        1.0
      ],
      "name": "sofa"
    },
    {
      "children": [
        5
      ],
      "matrix": [
        1.0,
        0.0,
        0.0,
        0.0,
        0.0,
        1.0,
        0.0,
        0.0,
        0.0,
        0.0,
        1.0,
        0.0,
        0.0,
        0.0,
        55.12919616699219,
        1.0
      ],
      "name": "sofa"
    },
    {
      "mesh": 0,
      "name": "sofa_sofa_0"
    }
  ],
  "samplers": [
    {
      "magFilter": 9729,
      "minFilter": 9987,
      "wrapS": 10497,
      "wrapT": 10497
    }
  ],
  "scene": 0,
  "scenes": [
    {
      "name": "Sketchfab_Scene",
      "nodes": [
        0
      ]
    }
  ],
  "textures": [
    {
      "sampler": 0,
      "source": 0
    },
    {
      "sampler": 0,
      "source": 1
    },
    {
      "sampler": 0,
      "source": 2
    }
  ]
}
