{
  "accessors": [
    {
      "bufferView": 2,
      "componentType": 5126,
      "count": 11656,
      "max": [
        1.2461771965026855,
        1.2461771965026855,
        -0.007817387580871582
      ],
      "min": [
        -1.2461771965026855,
        -1.2461771965026855,
        -3.4423251152038574
      ],
      "type": "VEC3"
    },
    {
      "bufferView": 2,
      "byteOffset": 139872,
      "componentType": 5126,
      "count": 11656,
      "max": [
        0.9999945163726807,
        0.9999945163726807,
        1.0
      ],
      "min": [
        -0.9999945163726807,
        -0.9999991059303284,
        -1.0
      ],
      "type": "VEC3"
    },
    {
      "bufferView": 3,
      "componentType": 5126,
      "count": 11656,
      "max": [
        1.0,
        1.0,
        0.9999840259552002,
        1.0
      ],
      "min": [
        -1.0,
        -1.0,
        -0.9819652438163757,
        -1.0
      ],
      "type": "VEC4"
    },
    {
      "bufferView": 1,
      "componentType": 5126,
      "count": 11656,
      "max": [
        0.9984506368637085,
        0.9976534247398376
      ],
      "min": [
        0.005438356660306454,
        0.0017145872116088867
      ],
      "type": "VEC2"
    },
    {
      "bufferView": 1,
      "byteOffset": 93248,
      "componentType": 5126,
      "count": 11656,
      "max": [
        0.9984506368637085,
        0.9976534247398376
      ],
      "min": [
        0.005438356660306454,
        0.0017145872116088867
      ],
      "type": "VEC2"
    },
    {
      "bufferView": 1,
      "byteOffset": 186496,
      "componentType": 5126,
      "count": 11656,
      "max": [
        0.9984506368637085,
        0.9976534247398376
      ],
      "min": [
        0.005438356660306454,
        0.0017145872116088867
      ],
      "type": "VEC2"
    },
    {
      "bufferView": 1,
      "byteOffset": 279744,
      "componentType": 5126,
      "count": 11656,
      "max": [
        0.9984506368637085,
        0.9976534247398376
      ],
      "min": [
        0.005438356660306454,
        0.0017145872116088867
      ],
      "type": "VEC2"
    },
    {
      "bufferView": 1,
      "byteOffset": 372992,
      "componentType": 5126,
      "count": 11656,
      "max": [
        0.9984506368637085,
        0.9976534247398376
      ],
      "min": [
        0.005438356660306454,
        0.0017145872116088867
      ],
      "type": "VEC2"
    },
    {
      "bufferView": 0,
      "componentType": 5125,
      "count": 48378,
      "type": "SCALAR"
    }
  ],
  "asset": {
    "extras": {
      "author": "chaschinkaa (https://sketchfab.com/chaschinkaa)",
      "license": "CC-BY-4.0 (http://creativecommons.org/licenses/by/4.0/)",
      "source": "https://sketchfab.com/3d-models/chandelier-0b0c66c7b1454ecc9614df95b0023cd2",
      "title": "Chandelier"
    },
    "generator": "Sketchfab-17.1.0",
    "version": "2.0"
  },
  "bufferViews": [
    {
      "buffer": 0,
      "byteLength": 193512,
      "name": "floatBufferViews",
      "target": 34963
    },
    {
      "buffer": 0,
      "byteLength": 466240,
      "byteOffset": 193512,
      "byteStride": 8,
      "name": "floatBufferViews",
      "target": 34962
    },
    {
      "buffer": 0,
      "byteLength": 279744,
      "byteOffset": 659752,
      "byteStride": 12,
      "name": "floatBufferViews",
      "target": 34962
    },
    {
      "buffer": 0,
      "byteLength": 186496,
      "byteOffset": 939496,
      "byteStride": 16,
      "name": "floatBufferViews",
      "target": 34962
    }
  ],
  "buffers": [
    {
      "byteLength": 1125992,
      "uri": "scene.bin"
    }
  ],
  "images": [
    {
      "uri": "textures/LampBigFancy_baseColor.png"
    },
    {
      "uri": "textures/LampBigFancy_metallicRoughness.png"
    },
    {
      "uri": "textures/LampBigFancy_normal.png"
    }
  ],
  "materials": [
    {
      "alphaCutoff": 0.0,
      "alphaMode": "MASK",
      "name": "LampBigFancy",
      "normalTexture": {
        "index": 2
      },
      "occlusionTexture": {
        "index": 1
      },
      "pbrMetallicRoughness": {
        "baseColorTexture": {
          "index": 0
        },
        "metallicRoughnessTexture": {
          "index": 1
        }
      }
    }
  ],
  "meshes": [
    {
      "name": "Object_0",
      "primitives": [
        {
          "attributes": {
            "NORMAL": 1,
            "POSITION": 0,
            "TANGENT": 2,
            "TEXCOORD_0": 3,
            "TEXCOORD_1": 4,
            "TEXCOORD_2": 5,
            "TEXCOORD_3": 6,
            "TEXCOORD_4": 7
          },
          "indices": 8,
          "material": 0,
          "mode": 4
        }
      ]
    }
  ],
  "nodes": [
    {
      "children": [
        1
      ],
      "matrix": [
        1.0,
        0.0,
        0.0,
        0.0,
        0.0,
        2.220446049250313e-16,
        -1.0,
        0.0,
        0.0,
        1.0,
        2.220446049250313e-16,
        0.0,
        0.0,
        0.0,
        0.0,
        1.0
      ],
      "name": "Sketchfab_model"
    },
    {
      "children": [
        2
      ],
      "name": "root"
    },
    {
      "children": [
        3
      ],
      "matrix": [
        1.0,
        0.0,
        0.0,
        0.0,
        0.0,
        2.220446049250313e-16,
        1.0,
        0.0,
        0.0,
        -1.0,
        2.220446049250313e-16,
        0.0,
        0.0,
        0.0,
        0.0,
        1.0
      ],
      "name": "GLTF_SceneRootNode"
    },
    {
      "children": [
        4
      ],
      "name": "RootNode_0"
    },
    {
      "children": [
        5
      ],
      "matrix": [
        100.0,
        0.0,
        -0.0,
        0.0,
        -0.0,
        -1.685873969314855e-05,
        -99.99999999999858,
        0.0,
        0.0,
        99.99999999999858,
        -1.685873969314855e-05,
        0.0,
        0.0,
        0.0,
        0.0,
        1.0
      ],
      "name": "LampBigFancy_1"
    },
    {
      "children": [
        6
      ],
      "name": "LampBigFancy_2"
    },
    {
      "mesh": 0,
      "name": "Object_6"
    }
  ],
  "samplers": [
    {
      "magFilter": 9729,
      "minFilter": 9987,
      "wrapS": 10497,
      "wrapT": 10497
    }
  ],
  "scene": 0,
  "scenes": [
    {
      "name": "Sketchfab_Scene",
      "nodes": [
        0
      ]
    }
  ],
  "textures": [
    {
      "sampler": 0,
      "source": 0
    },
    {
      "sampler": 0,
      "source": 1
    },
    {
      "sampler": 0,
      "source": 2
    }
  ]
}
