<svg xmlns="http://www.w3.org/2000/svg" xmlns:xlink="http://www.w3.org/1999/xlink" width="2000" zoomAndPan="magnify" viewBox="0 0 1500 1499.999933" height="2000" preserveAspectRatio="xMidYMid meet" version="1.0"><defs><clipPath id="9ea8345698"><path d="M 205 783 L 888 783 L 888 1329 L 205 1329 Z M 205 783 " clip-rule="nonzero"/></clipPath><clipPath id="3559a243f9"><path d="M -80.453125 351.644531 L 1020.074219 -120.375 L 1583.449219 1193.15625 L 482.921875 1665.175781 Z M -80.453125 351.644531 " clip-rule="nonzero"/></clipPath><clipPath id="abc6fe9bb2"><path d="M -81.070312 351.90625 L 1019.457031 -120.113281 L 1582.835938 1193.417969 L 482.308594 1665.4375 Z M -81.070312 351.90625 " clip-rule="nonzero"/></clipPath><clipPath id="2b99c1cbe0"><path d="M 755 547 L 1438 547 L 1438 1094 L 755 1094 Z M 755 547 " clip-rule="nonzero"/></clipPath><clipPath id="a39f55d6e2"><path d="M -80.453125 351.644531 L 1020.074219 -120.375 L 1583.449219 1193.15625 L 482.921875 1665.175781 Z M -80.453125 351.644531 " clip-rule="nonzero"/></clipPath><clipPath id="f177e75eb7"><path d="M -81.070312 351.90625 L 1019.457031 -120.113281 L 1582.835938 1193.417969 L 482.308594 1665.4375 Z M -81.070312 351.90625 " clip-rule="nonzero"/></clipPath><clipPath id="c213057aec"><path d="M 62 450 L 756 450 L 756 1020 L 62 1020 Z M 62 450 " clip-rule="nonzero"/></clipPath><clipPath id="e272427a02"><path d="M -80.453125 351.644531 L 1020.074219 -120.375 L 1583.449219 1193.15625 L 482.921875 1665.175781 Z M -80.453125 351.644531 " clip-rule="nonzero"/></clipPath><clipPath id="ee4976367f"><path d="M -81.070312 351.90625 L 1019.457031 -120.113281 L 1582.835938 1193.417969 L 482.308594 1665.4375 Z M -81.070312 351.90625 " clip-rule="nonzero"/></clipPath><clipPath id="ec95b0054c"><path d="M 612 214 L 1305 214 L 1305 784 L 612 784 Z M 612 214 " clip-rule="nonzero"/></clipPath><clipPath id="f3677fa6e6"><path d="M -80.453125 351.644531 L 1020.074219 -120.375 L 1583.449219 1193.15625 L 482.921875 1665.175781 Z M -80.453125 351.644531 " clip-rule="nonzero"/></clipPath><clipPath id="34abae48ee"><path d="M -81.070312 351.90625 L 1019.457031 -120.113281 L 1582.835938 1193.417969 L 482.308594 1665.4375 Z M -81.070312 351.90625 " clip-rule="nonzero"/></clipPath><clipPath id="a0aeec362e"><path d="M 62 116 L 1162 116 L 1162 784 L 62 784 Z M 62 116 " clip-rule="nonzero"/></clipPath><clipPath id="c57f66771f"><path d="M -80.453125 351.644531 L 1020.074219 -120.375 L 1583.449219 1193.15625 L 482.921875 1665.175781 Z M -80.453125 351.644531 " clip-rule="nonzero"/></clipPath><clipPath id="9e1a9a689f"><path d="M -81.070312 351.90625 L 1019.457031 -120.113281 L 1582.835938 1193.417969 L 482.308594 1665.4375 Z M -81.070312 351.90625 " clip-rule="nonzero"/></clipPath><clipPath id="d652ea253c"><path d="M 337 1093 L 1031 1093 L 1031 1427 L 337 1427 Z M 337 1093 " clip-rule="nonzero"/></clipPath><clipPath id="019475f64d"><path d="M -80.453125 351.644531 L 1020.074219 -120.375 L 1583.449219 1193.15625 L 482.921875 1665.175781 Z M -80.453125 351.644531 " clip-rule="nonzero"/></clipPath><clipPath id="aba8162fa0"><path d="M -81.070312 351.90625 L 1019.457031 -120.113281 L 1582.835938 1193.417969 L 482.308594 1665.4375 Z M -81.070312 351.90625 " clip-rule="nonzero"/></clipPath><clipPath id="34980a4bdc"><path d="M 887 857 L 1438 857 L 1438 1427 L 887 1427 Z M 887 857 " clip-rule="nonzero"/></clipPath><clipPath id="e1e8105b05"><path d="M -80.453125 351.644531 L 1020.074219 -120.375 L 1583.449219 1193.15625 L 482.921875 1665.175781 Z M -80.453125 351.644531 " clip-rule="nonzero"/></clipPath><clipPath id="fdfd51d95c"><path d="M -81.070312 351.90625 L 1019.457031 -120.113281 L 1582.835938 1193.417969 L 482.308594 1665.4375 Z M -81.070312 351.90625 " clip-rule="nonzero"/></clipPath><clipPath id="7933e496e5"><rect x="0" width="1500" y="0" height="1500"/></clipPath></defs><g transform="matrix(1, 0, 0, 1, 0, 0.000000000000112861)"><g clip-path="url(#7933e496e5)"><g clip-path="url(#9ea8345698)"><g clip-path="url(#3559a243f9)"><g clip-path="url(#abc6fe9bb2)"><path fill="#c2b280" d="M 797.765625 882.992188 L 755.078125 783.464844 L 205.183594 1019.316406 L 337.953125 1328.871094 L 887.847656 1093.019531 Z M 797.765625 882.992188 " fill-opacity="1" fill-rule="nonzero"/></g></g></g><g clip-path="url(#2b99c1cbe0)"><g clip-path="url(#a39f55d6e2)"><g clip-path="url(#f177e75eb7)"><path fill="#c2b280" d="M 755.078125 783.464844 L 797.765625 882.992188 L 887.847656 1093.019531 L 1437.742188 857.167969 L 1304.972656 547.613281 Z M 755.078125 783.464844 " fill-opacity="1" fill-rule="nonzero"/></g></g></g><g clip-path="url(#c213057aec)"><g clip-path="url(#e272427a02)"><g clip-path="url(#ee4976367f)"><path fill="#c2b280" d="M 62.179688 685.894531 L 612.074219 450.042969 L 755.078125 783.464844 L 205.183594 1019.316406 Z M 62.179688 685.894531 " fill-opacity="1" fill-rule="nonzero"/></g></g></g><g clip-path="url(#ec95b0054c)"><g clip-path="url(#f3677fa6e6)"><g clip-path="url(#34abae48ee)"><path fill="#c2b280" d="M 612.074219 450.042969 L 1161.964844 214.195312 L 1304.972656 547.613281 L 755.078125 783.464844 Z M 612.074219 450.042969 " fill-opacity="1" fill-rule="nonzero"/></g></g></g><g clip-path="url(#a0aeec362e)"><g clip-path="url(#c57f66771f)"><g clip-path="url(#9e1a9a689f)"><path fill="#4e312d" d="M 755.070312 783.46875 L 62.175781 685.886719 L 469.054688 116.617188 L 1161.964844 214.183594 Z M 755.070312 783.46875 " fill-opacity="1" fill-rule="nonzero"/></g></g></g><g clip-path="url(#d652ea253c)"><g clip-path="url(#019475f64d)"><g clip-path="url(#aba8162fa0)"><path fill="#c2b280" d="M 337.953125 1328.871094 L 1030.84375 1426.445312 L 1030.851562 1426.441406 L 887.847656 1093.019531 Z M 337.953125 1328.871094 " fill-opacity="1" fill-rule="nonzero"/></g></g></g><g clip-path="url(#34980a4bdc)"><g clip-path="url(#e1e8105b05)"><g clip-path="url(#fdfd51d95c)"><path fill="#c2b280" d="M 1030.851562 1426.441406 L 1437.742188 857.167969 L 887.847656 1093.019531 Z M 1030.851562 1426.441406 " fill-opacity="1" fill-rule="nonzero"/></g></g></g></g></g></svg>