<svg xmlns="http://www.w3.org/2000/svg" xmlns:xlink="http://www.w3.org/1999/xlink" width="2000" zoomAndPan="magnify" viewBox="0 0 1500 1499.999933" height="2000" preserveAspectRatio="xMidYMid meet" version="1.0"><defs><clipPath id="e7ab9bbf0d"><path d="M 205 783 L 888 783 L 888 1329 L 205 1329 Z M 205 783 " clip-rule="nonzero"/></clipPath><clipPath id="0945f8866a"><path d="M -80.453125 351.644531 L 1020.074219 -120.375 L 1583.449219 1193.15625 L 482.921875 1665.175781 Z M -80.453125 351.644531 " clip-rule="nonzero"/></clipPath><clipPath id="1df39f858c"><path d="M -81.070312 351.90625 L 1019.457031 -120.113281 L 1582.835938 1193.417969 L 482.308594 1665.4375 Z M -81.070312 351.90625 " clip-rule="nonzero"/></clipPath><clipPath id="185447b322"><path d="M 755 547 L 1438 547 L 1438 1094 L 755 1094 Z M 755 547 " clip-rule="nonzero"/></clipPath><clipPath id="ad08b2d73e"><path d="M -80.453125 351.644531 L 1020.074219 -120.375 L 1583.449219 1193.15625 L 482.921875 1665.175781 Z M -80.453125 351.644531 " clip-rule="nonzero"/></clipPath><clipPath id="f5cf08cb8e"><path d="M -81.070312 351.90625 L 1019.457031 -120.113281 L 1582.835938 1193.417969 L 482.308594 1665.4375 Z M -81.070312 351.90625 " clip-rule="nonzero"/></clipPath><clipPath id="4f33d4f484"><path d="M 62 450 L 756 450 L 756 1020 L 62 1020 Z M 62 450 " clip-rule="nonzero"/></clipPath><clipPath id="843c2ab636"><path d="M -80.453125 351.644531 L 1020.074219 -120.375 L 1583.449219 1193.15625 L 482.921875 1665.175781 Z M -80.453125 351.644531 " clip-rule="nonzero"/></clipPath><clipPath id="3266b810d8"><path d="M -81.070312 351.90625 L 1019.457031 -120.113281 L 1582.835938 1193.417969 L 482.308594 1665.4375 Z M -81.070312 351.90625 " clip-rule="nonzero"/></clipPath><clipPath id="5c181a4717"><path d="M 612 214 L 1305 214 L 1305 784 L 612 784 Z M 612 214 " clip-rule="nonzero"/></clipPath><clipPath id="02203dfae5"><path d="M -80.453125 351.644531 L 1020.074219 -120.375 L 1583.449219 1193.15625 L 482.921875 1665.175781 Z M -80.453125 351.644531 " clip-rule="nonzero"/></clipPath><clipPath id="e7b089f007"><path d="M -81.070312 351.90625 L 1019.457031 -120.113281 L 1582.835938 1193.417969 L 482.308594 1665.4375 Z M -81.070312 351.90625 " clip-rule="nonzero"/></clipPath><clipPath id="39f88c216d"><path d="M 62 116 L 1162 116 L 1162 784 L 62 784 Z M 62 116 " clip-rule="nonzero"/></clipPath><clipPath id="bb9d3d88cc"><path d="M -80.453125 351.644531 L 1020.074219 -120.375 L 1583.449219 1193.15625 L 482.921875 1665.175781 Z M -80.453125 351.644531 " clip-rule="nonzero"/></clipPath><clipPath id="aac2623eca"><path d="M -81.070312 351.90625 L 1019.457031 -120.113281 L 1582.835938 1193.417969 L 482.308594 1665.4375 Z M -81.070312 351.90625 " clip-rule="nonzero"/></clipPath><clipPath id="ea8c05cbb2"><path d="M 337 1093 L 1031 1093 L 1031 1427 L 337 1427 Z M 337 1093 " clip-rule="nonzero"/></clipPath><clipPath id="427ee18d68"><path d="M -80.453125 351.644531 L 1020.074219 -120.375 L 1583.449219 1193.15625 L 482.921875 1665.175781 Z M -80.453125 351.644531 " clip-rule="nonzero"/></clipPath><clipPath id="579193f5c1"><path d="M -81.070312 351.90625 L 1019.457031 -120.113281 L 1582.835938 1193.417969 L 482.308594 1665.4375 Z M -81.070312 351.90625 " clip-rule="nonzero"/></clipPath><clipPath id="ca9a7d7435"><path d="M 887 857 L 1438 857 L 1438 1427 L 887 1427 Z M 887 857 " clip-rule="nonzero"/></clipPath><clipPath id="52d5ee0f50"><path d="M -80.453125 351.644531 L 1020.074219 -120.375 L 1583.449219 1193.15625 L 482.921875 1665.175781 Z M -80.453125 351.644531 " clip-rule="nonzero"/></clipPath><clipPath id="78da04f8e3"><path d="M -81.070312 351.90625 L 1019.457031 -120.113281 L 1582.835938 1193.417969 L 482.308594 1665.4375 Z M -81.070312 351.90625 " clip-rule="nonzero"/></clipPath><clipPath id="336e39e6eb"><rect x="0" width="1500" y="0" height="1500"/></clipPath></defs><g transform="matrix(1, 0, 0, 1, 0, 0.000000000000112861)"><g clip-path="url(#336e39e6eb)"><g clip-path="url(#e7ab9bbf0d)"><g clip-path="url(#0945f8866a)"><g clip-path="url(#1df39f858c)"><path fill="#4e312d" d="M 797.765625 882.992188 L 755.078125 783.464844 L 205.183594 1019.316406 L 337.953125 1328.871094 L 887.847656 1093.019531 Z M 797.765625 882.992188 " fill-opacity="1" fill-rule="nonzero"/></g></g></g><g clip-path="url(#185447b322)"><g clip-path="url(#ad08b2d73e)"><g clip-path="url(#f5cf08cb8e)"><path fill="#4e312d" d="M 755.078125 783.464844 L 797.765625 882.992188 L 887.847656 1093.019531 L 1437.742188 857.167969 L 1304.972656 547.613281 Z M 755.078125 783.464844 " fill-opacity="1" fill-rule="nonzero"/></g></g></g><g clip-path="url(#4f33d4f484)"><g clip-path="url(#843c2ab636)"><g clip-path="url(#3266b810d8)"><path fill="#4e312d" d="M 62.179688 685.894531 L 612.074219 450.042969 L 755.078125 783.464844 L 205.183594 1019.316406 Z M 62.179688 685.894531 " fill-opacity="1" fill-rule="nonzero"/></g></g></g><g clip-path="url(#5c181a4717)"><g clip-path="url(#02203dfae5)"><g clip-path="url(#e7b089f007)"><path fill="#4e312d" d="M 612.074219 450.042969 L 1161.964844 214.195312 L 1304.972656 547.613281 L 755.078125 783.464844 Z M 612.074219 450.042969 " fill-opacity="1" fill-rule="nonzero"/></g></g></g><g clip-path="url(#39f88c216d)"><g clip-path="url(#bb9d3d88cc)"><g clip-path="url(#aac2623eca)"><path fill="#c2b280" d="M 755.070312 783.46875 L 62.175781 685.886719 L 469.054688 116.617188 L 1161.964844 214.183594 Z M 755.070312 783.46875 " fill-opacity="1" fill-rule="nonzero"/></g></g></g><g clip-path="url(#ea8c05cbb2)"><g clip-path="url(#427ee18d68)"><g clip-path="url(#579193f5c1)"><path fill="#4e312d" d="M 337.953125 1328.871094 L 1030.84375 1426.445312 L 1030.851562 1426.441406 L 887.847656 1093.019531 Z M 337.953125 1328.871094 " fill-opacity="1" fill-rule="nonzero"/></g></g></g><g clip-path="url(#ca9a7d7435)"><g clip-path="url(#52d5ee0f50)"><g clip-path="url(#78da04f8e3)"><path fill="#4e312d" d="M 1030.851562 1426.441406 L 1437.742188 857.167969 L 887.847656 1093.019531 Z M 1030.851562 1426.441406 " fill-opacity="1" fill-rule="nonzero"/></g></g></g></g></g></svg>